<svg width="7" height="14" viewBox="0 0 7 14" fill="none" xmlns="http://www.w3.org/2000/svg">
<path d="M1.62649 0.26455C1.25206 -0.090421 0.647682 -0.0878418 0.276575 0.270311C-0.094531 0.628464 -0.0918346 1.20657 0.282598 1.56154L2.52638 3.68869C3.43701 4.55199 4.06166 5.14613 4.48434 5.64955C4.89492 6.13857 5.03577 6.45268 5.07326 6.73399C5.09679 6.91063 5.09679 7.08937 5.07326 7.26601C5.03577 7.54732 4.89492 7.86143 4.48434 8.35044C4.06166 8.85387 3.43701 9.44801 2.52638 10.3113L0.282598 12.4385C-0.0918346 12.7934 -0.094531 13.3715 0.276575 13.7297C0.647682 14.0878 1.25206 14.0904 1.62649 13.7354L3.9107 11.57C4.77102 10.7544 5.47418 10.0878 5.97284 9.49388C6.49138 8.87626 6.86675 8.24938 6.96703 7.49689C7.01099 7.16695 7.01099 6.83305 6.96703 6.50311C6.86675 5.75062 6.49138 5.12374 5.97284 4.50612C5.47417 3.91219 4.77103 3.24561 3.91069 2.43003L1.62649 0.26455Z" fill="black"/>
</svg>
