<svg width="78" height="78" viewBox="0 0 78 78" fill="none" xmlns="http://www.w3.org/2000/svg">
<path fill-rule="evenodd" clip-rule="evenodd" d="M-1.70474e-06 39C-2.64625e-06 60.5391 17.4609 78 39 78C60.5391 78 78 60.5391 78 39C78 17.4609 60.5391 -7.6324e-07 39 -1.70474e-06C17.4609 -2.64625e-06 -7.6324e-07 17.4609 -1.70474e-06 39ZM54.6 41.925C56.2154 41.925 57.525 40.6154 57.525 39C57.525 37.3846 56.2154 36.075 54.6 36.075L27.5488 36.075C27.592 36.0196 27.6367 35.963 27.6831 35.9053C28.6936 34.6471 30.1965 33.1513 32.4386 30.9291L37.939 25.4775C39.0864 24.3403 39.0947 22.4883 37.9575 21.341C36.8203 20.1936 34.9683 20.1853 33.821 21.3225L28.2005 26.8931C26.1094 28.9654 24.3654 30.6939 23.1219 32.2422C21.8176 33.8663 20.8256 35.5731 20.5605 37.6526C20.5035 38.0999 20.475 38.5499 20.475 39C20.475 39.4501 20.5035 39.9001 20.5605 40.3474C20.8256 42.4269 21.8176 44.1337 23.1219 45.7578C24.3654 47.3061 26.1094 49.0345 28.2005 51.1069L33.821 56.6775C34.9683 57.8147 36.8203 57.8064 37.9575 56.659C39.0947 55.5117 39.0864 53.6597 37.939 52.5225L32.4386 47.0709C30.1965 44.8487 28.6936 43.3529 27.6831 42.0947C27.6367 42.037 27.592 41.9804 27.5488 41.925L54.6 41.925Z" fill="#4825A7"/>
</svg>
