<svg width="151" height="151" viewBox="0 0 151 151" fill="none" xmlns="http://www.w3.org/2000/svg">
<path d="M75.5 151C117.197 151 151 117.197 151 75.5C151 33.8025 117.197 0 75.5 0C33.8025 0 0 33.8025 0 75.5C0 117.197 33.8025 151 75.5 151Z" fill="url(#paint0_linear_408_5)"/>
<path fill-rule="evenodd" clip-rule="evenodd" d="M34.1756 74.703C56.1854 65.1137 70.862 58.7919 78.2055 55.7374C99.1727 47.0165 103.529 45.5016 106.369 45.4515C106.994 45.4405 108.39 45.5953 109.295 46.3293C110.059 46.9491 110.269 47.7863 110.369 48.374C110.47 48.9616 110.595 50.3002 110.496 51.3461C109.359 63.2845 104.443 92.2557 101.942 105.627C100.883 111.285 98.7995 113.182 96.782 113.367C92.3976 113.771 89.0683 110.47 84.8217 107.686C78.1768 103.33 74.4228 100.619 67.9727 96.3682C60.5185 91.456 65.3507 88.7561 69.5988 84.3438C70.7106 83.1891 90.0285 65.618 90.4024 64.0241C90.4491 63.8247 90.4925 63.0816 90.0511 62.6892C89.6096 62.2968 88.9581 62.431 88.4879 62.5377C87.8214 62.689 77.206 69.7054 56.6415 83.587C53.6284 85.6561 50.8992 86.6642 48.4539 86.6113C45.7581 86.5531 40.5726 85.0871 36.7177 83.8341C31.9895 82.2971 28.2316 81.4845 28.5589 78.8743C28.7293 77.5147 30.6015 76.1243 34.1756 74.703Z" fill="white"/>
<defs>
<linearGradient id="paint0_linear_408_5" x1="75.5" y1="0" x2="75.5" y2="149.88" gradientUnits="userSpaceOnUse">
<stop stop-color="#2AABEE"/>
<stop offset="1" stop-color="#229ED9"/>
</linearGradient>
</defs>
</svg>
