<svg width="45" height="48" viewBox="0 0 45 48" fill="none" xmlns="http://www.w3.org/2000/svg">
<path d="M44.8463 17.2909C44.6817 15.4909 44.3415 13.9745 43.6171 12.5455C43.4195 12.1745 43.211 11.8145 42.9915 11.4655C42.1134 10.1236 40.972 9.07636 39.4902 8.02909C38.0415 7.01455 36.1756 5.93455 33.8159 4.58182L33.6841 4.50546C31.3244 3.14182 29.4585 2.07273 27.8561 1.32C26.2098 0.556364 24.728 0.0981818 23.1256 0.0109091C22.9171 0.0109091 22.7085 0 22.5 0C22.2915 0 22.0829 0.0109091 21.8744 0.0109091C20.272 0.0981818 18.7902 0.556364 17.1439 1.32C15.5415 2.07273 13.6756 3.14182 11.3159 4.50546L11.1841 4.58182C8.82439 5.93455 6.95854 7.01455 5.50976 8.02909C4.02805 9.07636 2.88659 10.1236 2.00854 11.4655C1.78902 11.8145 1.58049 12.1745 1.38293 12.5455C0.658537 13.9745 0.318293 15.4909 0.153659 17.2909C0 19.0582 0 21.2073 0 23.9236V24.0764C0 26.7927 0 28.9418 0.153659 30.7091C0.318293 32.5091 0.658537 34.0255 1.38293 35.4545C1.58049 35.8255 1.78902 36.1855 2.00854 36.5345C3.08415 38.1818 4.56585 39.3927 6.58537 40.68C7.84756 41.4982 9.37317 42.3818 11.2171 43.44L11.3159 43.4945C13.6756 44.8582 15.5415 45.9273 17.1439 46.68C18.7902 47.4436 20.272 47.9018 21.8744 47.9891C22.0829 47.9891 22.2915 48 22.5 48C22.7085 48 22.9171 47.9891 23.1256 47.9891C24.728 47.9018 26.2098 47.4436 27.8561 46.68C29.4585 45.9273 31.3244 44.8582 33.6841 43.4945L33.7829 43.44C35.6378 42.3709 37.1854 41.4764 38.4585 40.6582C40.4561 39.3709 41.9268 38.1709 42.9915 36.5345C43.211 36.1855 43.4195 35.8255 43.6171 35.4545C44.3415 34.0255 44.6817 32.5091 44.8463 30.7091C45 28.9418 45 26.7927 45 24.0764V23.9236C45 21.2073 45 19.0582 44.8463 17.2909ZM35.7476 17.2582L27.5598 27.0218C25.9793 28.8982 24.728 30.3927 23.5756 31.4291C22.1598 32.6945 20.8976 33.2618 19.4817 33.2618C18.0659 33.2618 16.8037 32.6945 15.3878 31.4291C14.2354 30.3927 12.9951 28.8982 11.4146 27.0218L9.25244 24.4473C8.71463 23.7927 8.80244 22.8327 9.45 22.2873C9.76829 22.0255 10.1744 21.9055 10.5805 21.9382C10.9866 21.9709 11.3598 22.1673 11.6232 22.4836L13.7195 24.9818C15.322 26.8909 16.4744 28.2655 17.4622 29.1491C18.4829 30.0655 19.0537 30.1964 19.4817 30.1964C19.9098 30.1964 20.4915 30.0655 21.5122 29.1491C22.5 28.2655 23.6524 26.8909 25.2439 24.9818L33.3768 15.2945C33.9146 14.64 34.8915 14.5527 35.55 15.0982C35.8683 15.36 36.0549 15.7309 36.0988 16.1345C36.1317 16.5382 36.011 16.9418 35.7476 17.2582Z" fill="#4825A7"/>
</svg>
