<svg width="41" height="45" viewBox="0 0 41 45" fill="none" xmlns="http://www.w3.org/2000/svg">
<path fill-rule="evenodd" clip-rule="evenodd" d="M40.86 16.85C40.71 15.2 40.4 13.81 39.74 12.5C39.56 12.16 39.37 11.83 39.17 11.51C38.37 10.28 37.33 9.31999 35.98 8.35999C34.66 7.42999 32.96 6.43999 30.81 5.19999L30.69 5.12999C28.54 3.87999 26.84 2.89999 25.38 2.20999C23.88 1.50999 22.53 1.08999 21.07 0.999993C20.69 0.989993 20.31 0.989993 19.93 0.999993C18.47 1.07999 17.12 1.49999 15.62 2.19999C14.16 2.88999 12.46 3.86999 10.31 5.11999L10.19 5.18999C8.04 6.42999 6.34 7.41999 5.02 8.34999C3.67 9.30999 2.63 10.27 1.83 11.5C1.63 11.82 1.44 12.15 1.26 12.49C0.6 13.8 0.29 15.19 0.14 16.84C0 18.46 0 20.43 0 22.92V23.06C0 25.55 0 27.52 0.14 29.14C0.29 30.79 0.6 32.18 1.26 33.49C1.44 33.83 1.63 34.16 1.83 34.48C2.81 35.99 4.16 37.1 6 38.28C7.15 39.03 8.54 39.84 10.22 40.81L10.31 40.86C12.46 42.11 14.16 43.09 15.62 43.78C17.12 44.48 18.47 44.9 19.93 44.98C20.31 44.99 20.69 44.99 21.07 44.98C22.53 44.9 23.88 44.48 25.38 43.78C26.84 43.09 28.54 42.11 30.69 40.86L30.78 40.81C32.47 39.83 33.88 39.01 35.04 38.26C36.86 37.08 38.2 35.98 39.17 34.48C39.37 34.16 39.56 33.83 39.74 33.49C40.4 32.18 40.71 30.79 40.86 29.14C41 27.52 41 25.55 41 23.06V22.92C41 20.43 41 18.46 40.86 16.84V16.85Z" fill="#4825A7"/>
</svg>
