<svg width="41" height="44" viewBox="0 0 41 44" fill="none" xmlns="http://www.w3.org/2000/svg">
<path d="M20.5 25.5075C21.5494 25.5075 22.5589 25.3361 23.5023 25.0197C27.2641 23.7581 29.9757 20.1908 29.9757 15.9872C29.9757 10.7292 25.7333 6.46681 20.5 6.46681C20.4591 6.46681 20.4183 6.46707 20.3775 6.46759C19.7661 6.47537 19.1686 6.54134 18.5903 6.66023C14.2724 7.54794 11.0242 11.3864 11.0242 15.9872C11.0242 21.2451 15.2667 25.5075 20.5 25.5075Z" fill="#4825A7"/>
<path fill-rule="evenodd" clip-rule="evenodd" d="M19.9312 0.0141778C20.3102 -0.00472593 20.6898 -0.00472593 21.0688 0.0141778C22.5318 0.0871542 23.8786 0.514247 25.3801 1.21429C26.8418 1.8958 28.5403 2.88107 30.6891 4.12755L30.8108 4.19811C32.9596 5.44458 34.6582 6.42986 35.9765 7.36094C37.3306 8.31735 38.3722 9.27573 39.1666 10.5122C39.3724 10.8325 39.5622 11.1628 39.7354 11.502C40.404 12.8114 40.7093 14.1969 40.8566 15.8534C41 17.4659 41 19.4364 41 21.9293V22.0706C41 24.5635 41 26.5341 40.8566 28.1466C40.7093 29.8031 40.404 31.1886 39.7354 32.498C39.5622 32.8372 39.3724 33.1675 39.1666 33.4878C38.1985 34.9946 36.8593 36.0926 35.0375 37.2722C33.8818 38.0205 32.4731 38.8376 30.7798 39.8198L30.6892 39.8724C28.5403 41.1189 26.8418 42.1042 25.3801 42.7857C23.8786 43.4858 22.5318 43.9128 21.0688 43.9858C20.6898 44.0047 20.3102 44.0047 19.9312 43.9858C18.4682 43.9128 17.1214 43.4858 15.6199 42.7857C14.1582 42.1042 12.4597 41.1189 10.3108 39.8724L10.2214 39.8206C8.54393 38.8475 7.14589 38.0366 5.99675 37.2943C4.15743 36.1063 2.80742 35.0039 1.83339 33.4878C1.62761 33.1675 1.43778 32.8372 1.26459 32.498C0.596009 31.1886 0.29071 29.8031 0.143393 28.1466C-2.22351e-05 26.5341 -1.22526e-05 24.5635 2.3232e-07 22.0706V21.9294C-1.22526e-05 19.4365 -2.22351e-05 17.4659 0.143393 15.8534C0.29071 14.1969 0.596009 12.8114 1.26459 11.502C1.43778 11.1628 1.62761 10.8325 1.83339 10.5122C2.62778 9.27573 3.66935 8.31735 5.0235 7.36094C6.34179 6.42986 8.04031 5.44461 10.1892 4.19815L10.3109 4.12755C12.4597 2.88107 14.1582 1.8958 15.6199 1.21429C17.1214 0.514247 18.4682 0.0871542 19.9312 0.0141778ZM20.9204 3.0169C20.6403 3.00293 20.3597 3.00293 20.0796 3.0169C19.1363 3.06395 18.1799 3.33506 16.8795 3.94139C15.553 4.55983 13.9692 5.47695 11.7462 6.76649C9.52308 8.05603 7.94066 8.97554 6.74436 9.82046C5.5715 10.6488 4.85962 11.3455 4.34744 12.1426C4.19535 12.3794 4.05503 12.6236 3.92703 12.8743C3.49596 13.7185 3.25144 14.6862 3.12385 16.1209C2.9937 17.5843 2.99233 19.4209 2.99233 22C2.99233 24.5791 2.9937 26.4157 3.12385 27.8791C3.25144 29.3138 3.49596 30.2815 3.92703 31.1257C4.05504 31.3764 4.19535 31.6206 4.34744 31.8574C4.75602 32.4933 5.28979 33.0633 6.08304 33.6878C7.6545 30.6163 10.8391 28.5139 14.5153 28.5139H26.4847C30.1609 28.5139 33.3455 30.6164 34.917 33.6878C35.7103 33.0632 36.244 32.4932 36.6526 31.8574C36.8047 31.6206 36.945 31.3764 37.073 31.1257C37.504 30.2815 37.7486 29.3138 37.8762 27.8791C38.0063 26.4157 38.0077 24.5791 38.0077 22C38.0077 19.4209 38.0063 17.5843 37.8762 16.1209C37.7486 14.6862 37.504 13.7185 37.073 12.8743C36.945 12.6236 36.8047 12.3794 36.6526 12.1426C36.1404 11.3455 35.4285 10.6488 34.2556 9.82046C33.0593 8.97554 31.4769 8.05603 29.2538 6.76649C27.0308 5.47695 25.447 4.55983 24.1205 3.94139C22.8201 3.33506 21.8637 3.06395 20.9204 3.0169Z" fill="#4825A7"/>
</svg>
