<svg width="29" height="29" viewBox="0 0 29 29" fill="none" xmlns="http://www.w3.org/2000/svg">
<path fill-rule="evenodd" clip-rule="evenodd" d="M0 14.5C0 8.45877 0 5.43815 1.53847 3.32062C2.03534 2.63674 2.63674 2.03534 3.32062 1.53847C5.43815 0 8.45877 0 14.5 0C20.5412 0 23.5619 0 25.6794 1.53847C26.3633 2.03534 26.9647 2.63674 27.4615 3.32062C29 5.43815 29 8.45877 29 14.5C29 20.5412 29 23.5619 27.4615 25.6794C26.9647 26.3633 26.3633 26.9647 25.6794 27.4615C23.5619 29 20.5412 29 14.5 29C8.45877 29 5.43815 29 3.32062 27.4615C2.63674 26.9647 2.03534 26.3633 1.53847 25.6794C0 23.5619 0 20.5412 0 14.5ZM14.5 11.6806C15.1673 11.6806 15.7083 12.2215 15.7083 12.8889V22.5556C15.7083 23.2229 15.1673 23.7639 14.5 23.7639C13.8327 23.7639 13.2917 23.2229 13.2917 22.5556V12.8889C13.2917 12.2215 13.8327 11.6806 14.5 11.6806ZM14.5 9.66667C15.3898 9.66667 16.1111 8.94535 16.1111 8.05556C16.1111 7.16576 15.3898 6.44444 14.5 6.44444C13.6102 6.44444 12.8889 7.16576 12.8889 8.05556C12.8889 8.94535 13.6102 9.66667 14.5 9.66667Z" fill="#3B1E9C"/>
</svg>
