<svg width="202" height="52" viewBox="0 0 202 52" fill="none" xmlns="http://www.w3.org/2000/svg">
<path d="M25.522 13.85C27.9924 13.85 30.2992 14.6167 32.2133 15.9333C33.4731 16.8 34.5692 17.9167 35.4199 19.2L45.1052 9.33333C44.14 8.15 43.0602 7.06667 41.8986 6.06667C37.465 2.28333 31.7552 0 25.522 0C11.4358 0 0 11.65 0 26C0 40.35 11.4358 52 25.522 52C31.7552 52 37.465 49.7167 41.8986 45.95C43.0602 44.9667 44.1236 43.8667 45.1052 42.6833L41.8822 39.4C40.9333 40.6 39.8536 41.7 38.6756 42.6667C35.0764 45.6167 30.4955 47.3833 25.522 47.3833C13.9226 47.3833 4.53179 37.8 4.53179 26C4.53179 14.2 13.9389 4.61667 25.522 4.61667C30.4955 4.61667 35.0764 6.38333 38.6756 9.33333L35.4527 12.6167C32.6878 10.4833 29.2521 9.21667 25.522 9.21667C16.4257 9.21667 9.06358 16.7333 9.06358 25.9833C9.06358 35.2333 16.4421 42.75 25.522 42.75C29.2521 42.75 32.6878 41.4833 35.4527 39.35C36.6633 38.4167 37.7431 37.3167 38.6593 36.0833C39.3955 35.1 40.0172 34.0333 40.5243 32.8833C41.1624 31.45 41.6205 29.9 41.8332 28.2667C41.9313 27.5167 41.9804 26.7333 41.9804 25.9667C41.9804 25.2 41.9313 24.4167 41.8332 23.6667H29.2358C28.4832 22.45 27.158 21.65 25.6529 21.65C23.3134 21.65 21.4156 23.5833 21.4156 25.9667C21.4156 28.35 23.3134 30.2833 25.6529 30.2833C27.158 30.2833 28.4832 29.4833 29.2358 28.2667H37.2359C36.9251 29.95 36.2543 31.5167 35.3218 32.8833C33.1622 36.05 29.5793 38.1167 25.5056 38.1167C18.9124 38.1167 13.579 32.6667 13.579 25.9667C13.579 19.2667 18.9288 13.8167 25.5056 13.8167L25.522 13.85Z" fill="white"/>
<path d="M63.4287 15.6333C63.9195 15.1333 64.4921 14.75 65.1629 14.4833C65.8337 14.2167 66.5698 14.0833 67.3551 14.0833C68.2059 14.0833 68.9748 14.25 69.6947 14.6C70.4145 14.9333 71.0689 15.45 71.6415 16.1333L74.1774 13.75C73.3594 12.7333 72.3614 11.9667 71.1671 11.45C69.9728 10.9333 68.6312 10.6667 67.1588 10.6667C65.8173 10.6667 64.5903 10.8833 63.4778 11.3333C62.3489 11.7667 61.3673 12.4 60.5329 13.2167C59.6986 14.0333 59.0441 14.9833 58.5861 16.0833C58.128 17.1833 57.8989 18.3833 57.8989 19.6833C57.8989 20.9833 58.128 22.2 58.5861 23.2833C59.0441 24.3833 59.6986 25.3333 60.5329 26.15C61.3673 26.9667 62.3489 27.5833 63.4778 28.0333C64.6066 28.4667 65.8336 28.7 67.1588 28.7C68.664 28.7 70.0055 28.4333 71.1998 27.9C72.3941 27.3667 73.4084 26.6 74.2101 25.5833L71.6743 23.2C71.0853 23.9 70.4309 24.4167 69.7274 24.75C69.0075 25.0833 68.2222 25.2667 67.3879 25.2667C66.5862 25.2667 65.85 25.1333 65.1956 24.8667C64.5248 24.6 63.9522 24.2167 63.4614 23.7167C62.9706 23.2167 62.5943 22.6333 62.3326 21.95C62.0708 21.2667 61.9235 20.5167 61.9235 19.6833C61.9235 18.85 62.0544 18.1 62.3326 17.4167C62.5943 16.7333 62.987 16.15 63.4614 15.65L63.4287 15.6333Z" fill="white"/>
<path d="M88.1817 20.55C88.1817 22.2 87.8545 23.4 87.1838 24.1333C86.513 24.8667 85.5805 25.2333 84.3698 25.2333C83.1591 25.2333 82.2266 24.8667 81.5558 24.1333C80.8851 23.4 80.5579 22.2167 80.5579 20.55V10.95H76.5987V20.7C76.5987 23.25 77.2858 25.2167 78.6437 26.6C80.018 27.9833 81.8994 28.6667 84.3371 28.6667C86.7748 28.6667 88.6562 27.9833 90.0304 26.6C91.4047 25.2167 92.0755 23.2667 92.0755 20.7V10.95H88.1654V20.55H88.1817Z" fill="white"/>
<path d="M99.9611 10.95H96.0019V28.35H99.9611V10.95Z" fill="white"/>
<path d="M117.843 25.0833H108.125L117.483 13.5667V10.95H103.102V14.2333H112.28L102.906 25.75V28.35H117.843V25.0833Z" fill="white"/>
<path d="M139.209 28.0833C140.436 27.7 141.516 27.15 142.449 26.45V19.3833H138.833V24.4667C138.571 24.6 138.31 24.75 138.048 24.85C137.312 25.1 136.543 25.2333 135.757 25.2333C134.972 25.2333 134.203 25.1 133.516 24.8333C132.845 24.5667 132.256 24.1833 131.765 23.6833C131.275 23.1833 130.882 22.5833 130.62 21.9C130.358 21.2167 130.211 20.4667 130.211 19.6667C130.211 18.8667 130.342 18.0833 130.62 17.4C130.882 16.7167 131.275 16.1333 131.765 15.6333C132.256 15.1333 132.845 14.75 133.532 14.4833C134.219 14.2167 134.972 14.0833 135.806 14.0833C136.641 14.0833 137.459 14.25 138.195 14.5667C138.931 14.8833 139.602 15.3833 140.224 16.05L142.76 13.6667C141.925 12.6833 140.911 11.95 139.7 11.4333C138.49 10.9167 137.132 10.6667 135.61 10.6667C134.236 10.6667 132.992 10.8833 131.847 11.3333C130.702 11.7667 129.72 12.4 128.87 13.2167C128.019 14.0333 127.365 14.9833 126.906 16.0833C126.448 17.1833 126.219 18.3833 126.219 19.6833C126.219 20.9833 126.448 22.2 126.906 23.2833C127.365 24.3833 128.019 25.3333 128.853 26.15C129.688 26.9667 130.669 27.5833 131.815 28.0333C132.943 28.4667 134.187 28.7 135.545 28.7C136.772 28.7 137.982 28.5167 139.226 28.1333L139.209 28.0833Z" fill="white"/>
<path d="M157.451 22.7667C158.564 22.2667 159.414 21.55 160.02 20.6167C160.625 19.6833 160.919 18.5667 160.919 17.2667C160.919 15.9667 160.625 14.8333 160.02 13.8833C159.414 12.9333 158.564 12.2167 157.451 11.7C156.339 11.2 155.03 10.9333 153.492 10.9333H146.097V28.3333H150.056V23.4833H153.492C153.492 23.4833 153.606 23.4833 153.672 23.4833L156.96 28.35H161.23L157.418 22.7667H157.451ZM156.011 15.0333C156.617 15.5667 156.911 16.3167 156.911 17.2667C156.911 18.2167 156.617 18.95 156.011 19.5C155.406 20.0333 154.49 20.3 153.279 20.3H150.056V14.2333H153.279C154.506 14.2333 155.406 14.5 156.011 15.0333Z" fill="white"/>
<path d="M169.41 10.95L161.803 28.35H165.86L167.382 24.6167H175.3L176.822 28.35H180.977L173.337 10.95H169.41ZM168.625 21.5667L171.341 14.9L174.057 21.5667H168.625Z" fill="white"/>
<path d="M202 28.35L201.951 10.95H198.712L192.413 21.7667L186.016 10.95H182.744V28.35H186.458V18.1333L191.464 26.5167H193.247L198.27 17.9167L198.286 28.35H202Z" fill="white"/>
<path d="M58.7169 38.8H59.3059V34.9333H62.0053V38.8H62.578V34.4167H58.7169V38.8Z" fill="white"/>
<path d="M66.9952 34.6667C66.6844 34.4833 66.3244 34.3833 65.9154 34.3833C65.5064 34.3833 65.1629 34.4833 64.8357 34.6667C64.5248 34.8667 64.2631 35.1167 64.0831 35.45C63.9031 35.7833 63.805 36.1667 63.805 36.6C63.805 37.0333 63.9031 37.4167 64.0831 37.75C64.2631 38.0833 64.5412 38.35 64.8848 38.55C65.2283 38.7333 65.621 38.8333 66.0627 38.8333C66.4063 38.8333 66.7171 38.7667 67.0116 38.65C67.3061 38.5333 67.5351 38.35 67.7314 38.1167L67.4042 37.7333C67.2406 37.9333 67.0443 38.0667 66.8153 38.1667C66.5862 38.2667 66.3408 38.3 66.079 38.3C65.7518 38.3 65.4574 38.2333 65.1956 38.0833C64.9338 37.95 64.7375 37.75 64.5903 37.5C64.4757 37.2833 64.4103 37.05 64.3939 36.7833H67.9932C67.9932 36.7833 67.9932 36.7167 67.9932 36.6833C67.9932 36.65 67.9932 36.6167 67.9932 36.6C67.9932 36.1667 67.895 35.7667 67.7151 35.4333C67.5351 35.1 67.2897 34.8333 66.9789 34.65L66.9952 34.6667ZM64.5739 35.6833C64.7048 35.4333 64.8847 35.2333 65.1138 35.1C65.3428 34.9667 65.621 34.9 65.9154 34.9C66.2099 34.9 66.4717 34.9667 66.7007 35.1C66.9298 35.2333 67.1097 35.4333 67.2406 35.6833C67.3551 35.8833 67.4042 36.1167 67.4206 36.35H64.3776C64.3939 36.1 64.443 35.8833 64.5575 35.6833H64.5739Z" fill="white"/>
<path d="M72.6068 34.6667C72.2796 34.4833 71.9197 34.3833 71.5107 34.3833C71.1344 34.3833 70.7908 34.4667 70.4963 34.6333C70.2346 34.7833 70.0219 35.0167 69.8419 35.3V34.4167H69.2857V40.4167H69.8583V37.9333C70.0219 38.2 70.2346 38.4167 70.4963 38.5667C70.7908 38.7333 71.1344 38.8333 71.4943 38.8333C71.9033 38.8333 72.2632 38.7333 72.5904 38.55C72.9176 38.3667 73.163 38.1 73.3594 37.7667C73.5393 37.4333 73.6375 37.05 73.6375 36.6C73.6375 36.15 73.5393 35.7667 73.3594 35.4333C73.1794 35.1 72.9176 34.8333 72.5904 34.65L72.6068 34.6667ZM72.8522 37.5167C72.7049 37.7667 72.525 37.9667 72.2796 38.1167C72.0342 38.2667 71.7724 38.3333 71.4616 38.3333C71.1507 38.3333 70.889 38.2667 70.6436 38.1167C70.3982 37.9667 70.2018 37.7667 70.071 37.5167C69.9401 37.25 69.8583 36.9667 69.8583 36.6167C69.8583 36.2667 69.9237 35.9833 70.071 35.7167C70.2182 35.45 70.3982 35.2667 70.6436 35.1167C70.889 34.9667 71.1671 34.9 71.4616 34.9C71.7561 34.9 72.0342 34.9667 72.2796 35.1167C72.525 35.2667 72.7049 35.4667 72.8522 35.7167C72.9994 35.9667 73.0649 36.2667 73.0649 36.6167C73.0649 36.9667 72.9994 37.25 72.8522 37.5167Z" fill="white"/>
<path d="M77.5967 36.5333C77.7275 36.4833 77.8584 36.4333 77.9729 36.3667C78.2347 36.1667 78.382 35.9 78.382 35.55C78.382 35.2 78.2347 34.9 77.9566 34.7167C77.6785 34.5333 77.2858 34.4333 76.8114 34.4333H74.9136V38.8H76.8768C77.4494 38.8 77.8584 38.7 78.1366 38.4833C78.4147 38.2833 78.5456 37.9833 78.5456 37.6C78.5456 37.2167 78.431 36.95 78.1856 36.75C78.0547 36.6333 77.8584 36.5667 77.6294 36.5167L77.5967 36.5333ZM75.4698 34.8833H76.7623C77.0895 34.8833 77.3513 34.95 77.5312 35.0667C77.7112 35.1833 77.793 35.3667 77.793 35.6167C77.793 35.8667 77.7112 36.05 77.5312 36.1667C77.3513 36.3 77.1059 36.3667 76.7623 36.3667H75.4698V34.8833ZM77.6621 38.15C77.4821 38.2667 77.204 38.3333 76.8277 38.3333H75.4698V36.8H76.8932C77.2531 36.8 77.5312 36.8667 77.6948 36.9833C77.8584 37.1 77.9566 37.3 77.9566 37.5667C77.9566 37.8333 77.8584 38.0333 77.6785 38.15H77.6621Z" fill="white"/>
<path d="M84.6316 34.4167H84.059V38.7833H84.6316V34.4167Z" fill="white"/>
<path d="M81.6867 35.9667H80.4597V34.4333H79.8871V38.8H81.5886C82.1612 38.8 82.5865 38.7 82.8974 38.45C83.2082 38.2 83.3555 37.8333 83.3555 37.3667C83.3555 36.9 83.2082 36.5667 82.9301 36.3333C82.652 36.1 82.2266 35.9667 81.6867 35.9667ZM82.4557 38.1167C82.2593 38.2833 81.9485 38.3667 81.5395 38.3667H80.4597V36.4H81.5395C81.9485 36.4167 82.2593 36.5 82.4557 36.65C82.652 36.8 82.7665 37.05 82.7665 37.3667C82.7665 37.6833 82.6683 37.95 82.4557 38.1167Z" fill="white"/>
<path d="M89.1306 33.5167C89.3597 33.3333 89.4742 33.0667 89.4742 32.7167H89.0652C89.0652 32.9333 88.9834 33.1167 88.8362 33.2333C88.6889 33.35 88.4926 33.4167 88.2635 33.4167C88.0345 33.4167 87.8382 33.35 87.6909 33.2333C87.5437 33.1 87.4619 32.9333 87.4619 32.7167H87.0529C87.0529 33.0667 87.1838 33.3333 87.3964 33.5167C87.6091 33.7 87.9036 33.8 88.2635 33.8C88.6235 33.8 88.918 33.7 89.147 33.5167H89.1306Z" fill="white"/>
<path d="M86.8729 37.9V34.4167H86.3003V38.8H86.8238L89.6869 35.3167V38.8H90.2595V34.4167H89.7523L86.8729 37.9Z" fill="white"/>
<path d="M97.7852 34.4167H97.1472L95.642 36.3333H94.644V34.4167H94.0714V38.8H94.644V36.85H95.6257L97.2126 38.8H97.8997L96.0837 36.5333L97.7852 34.4167Z" fill="white"/>
<path d="M102.137 34.6667C101.81 34.4833 101.45 34.3833 101.041 34.3833C100.665 34.3833 100.321 34.4667 100.027 34.6333C99.7648 34.7833 99.5521 35.0167 99.3722 35.3V34.4167H98.8159V40.4167H99.3885V37.9333C99.5521 38.2 99.7648 38.4167 100.027 38.5667C100.321 38.7333 100.665 38.8333 101.025 38.8333C101.434 38.8333 101.793 38.7333 102.121 38.55C102.448 38.3667 102.693 38.1 102.89 37.7667C103.07 37.4333 103.168 37.05 103.168 36.6C103.168 36.15 103.07 35.7667 102.89 35.4333C102.71 35.1 102.448 34.8333 102.121 34.65L102.137 34.6667ZM102.382 37.5167C102.235 37.7667 102.055 37.9667 101.81 38.1167C101.564 38.2667 101.303 38.3333 100.992 38.3333C100.681 38.3333 100.419 38.2667 100.174 38.1167C99.9284 37.9667 99.7321 37.7667 99.6012 37.5167C99.4703 37.25 99.3885 36.9667 99.3885 36.6167C99.3885 36.2667 99.454 35.9833 99.6012 35.7167C99.7484 35.45 99.9284 35.2667 100.174 35.1167C100.419 34.9667 100.697 34.9 100.992 34.9C101.286 34.9 101.564 34.9667 101.81 35.1167C102.055 35.2667 102.235 35.4667 102.382 35.7167C102.53 35.9667 102.595 36.2667 102.595 36.6167C102.595 36.9667 102.53 37.25 102.382 37.5167Z" fill="white"/>
<path d="M105.016 37.9V34.4167H104.427V38.8H104.951L107.814 35.3167V38.8H108.403V34.4167H107.879L105.016 37.9Z" fill="white"/>
<path d="M110.055 38.8H110.644V34.9333H113.344V38.8H113.916V34.4167H110.055V38.8Z" fill="white"/>
<path d="M114.767 34.9333H116.387V38.8H116.976V34.9333H118.595V34.4167H114.767V34.9333Z" fill="white"/>
<path d="M122.146 34.6667C121.818 34.4833 121.442 34.3833 121.017 34.3833C120.591 34.3833 120.231 34.4833 119.888 34.6667C119.561 34.85 119.299 35.1167 119.103 35.45C118.906 35.7833 118.824 36.1667 118.824 36.6C118.824 37.0333 118.923 37.4167 119.103 37.75C119.283 38.0833 119.561 38.35 119.888 38.55C120.215 38.7333 120.591 38.8333 121 38.8333C121.409 38.8333 121.802 38.7333 122.129 38.55C122.456 38.35 122.718 38.1 122.915 37.75C123.111 37.4167 123.193 37.0333 123.193 36.6C123.193 36.1667 123.095 35.7667 122.915 35.45C122.735 35.1167 122.473 34.85 122.129 34.6667H122.146ZM122.407 37.5C122.277 37.75 122.08 37.95 121.835 38.1C121.589 38.2333 121.328 38.3167 121.017 38.3167C120.706 38.3167 120.444 38.25 120.199 38.1C119.953 37.9667 119.773 37.75 119.626 37.5C119.479 37.2333 119.413 36.95 119.413 36.6C119.413 36.25 119.479 35.95 119.626 35.7C119.773 35.45 119.953 35.25 120.199 35.1C120.444 34.9667 120.706 34.8833 121.017 34.8833C121.328 34.8833 121.589 34.95 121.835 35.1C122.08 35.2333 122.26 35.4333 122.407 35.7C122.555 35.9667 122.62 36.25 122.62 36.6C122.62 36.95 122.555 37.2333 122.407 37.5Z" fill="white"/>
<path d="M126.334 36.2833H124.191V36.8H126.334V36.2833Z" fill="white"/>
<path d="M131.373 34.4167H130.735L129.23 36.3333H128.232V34.4167H127.659V38.8H128.232V36.85H129.213L130.8 38.8H131.487L129.671 36.5333L131.373 34.4167Z" fill="white"/>
<path d="M135.103 36.5333C135.234 36.4833 135.365 36.4333 135.479 36.3667C135.741 36.1667 135.888 35.9 135.888 35.55C135.888 35.2 135.741 34.9 135.463 34.7167C135.185 34.5333 134.792 34.4333 134.318 34.4333H132.42V38.8H134.383C134.956 38.8 135.365 38.7 135.643 38.4833C135.921 38.2833 136.052 37.9833 136.052 37.6C136.052 37.2167 135.937 36.95 135.692 36.75C135.561 36.6333 135.365 36.5667 135.136 36.5167L135.103 36.5333ZM132.976 34.8833H134.269C134.596 34.8833 134.858 34.95 135.038 35.0667C135.217 35.1833 135.299 35.3667 135.299 35.6167C135.299 35.8667 135.217 36.05 135.038 36.1667C134.858 36.3 134.612 36.3667 134.269 36.3667H132.976V34.8833ZM135.168 38.15C134.988 38.2667 134.71 38.3333 134.334 38.3333H132.976V36.8H134.399C134.759 36.8 135.037 36.8667 135.201 36.9833C135.365 37.1 135.463 37.3 135.463 37.5667C135.463 37.8333 135.365 38.0333 135.185 38.15H135.168Z" fill="white"/>
<path d="M137.966 37.9V34.4167H137.377V38.8H137.901L140.764 35.3167V38.8H141.353V34.4167H140.829L137.966 37.9Z" fill="white"/>
<path d="M144.935 36.5C144.935 36.5 145.066 36.5 145.132 36.4667C145.344 36.3833 145.524 36.25 145.655 36.0833C145.786 35.9167 145.852 35.7333 145.852 35.5167C145.852 35.2667 145.77 35.0667 145.606 34.8833C145.443 34.7 145.23 34.5667 144.952 34.4833C144.674 34.3833 144.363 34.35 144.019 34.3667C143.774 34.3667 143.512 34.4 143.267 34.4667C143.021 34.5333 142.776 34.6333 142.514 34.7667L142.678 35.2333C142.907 35.1167 143.119 35.0333 143.365 34.9667C143.61 34.9 143.807 34.8833 144.036 34.8667C144.265 34.8667 144.477 34.9 144.657 34.95C144.837 35 144.985 35.0833 145.099 35.2C145.197 35.3167 145.263 35.45 145.263 35.6C145.263 35.75 145.214 35.8667 145.132 35.9833C145.034 36.0833 144.919 36.1667 144.755 36.2333C144.592 36.2833 144.396 36.3167 144.183 36.3167H143.496V36.75H144.232C144.592 36.75 144.87 36.8167 145.083 36.95C145.295 37.0833 145.394 37.2667 145.394 37.5C145.394 37.6667 145.344 37.8 145.23 37.9333C145.115 38.0667 144.968 38.1667 144.772 38.2333C144.576 38.3 144.346 38.35 144.085 38.35C143.823 38.35 143.545 38.3167 143.267 38.2333C142.989 38.15 142.76 38.0333 142.547 37.8833L142.351 38.3333C142.58 38.5167 142.858 38.65 143.169 38.75C143.479 38.8333 143.79 38.8833 144.085 38.8833C144.445 38.8833 144.755 38.8333 145.05 38.7167C145.344 38.6 145.557 38.45 145.737 38.25C145.901 38.05 145.999 37.8167 145.999 37.5667C145.999 37.2333 145.868 36.9667 145.59 36.7667C145.426 36.65 145.214 36.5833 144.968 36.5333L144.935 36.5Z" fill="white"/>
</svg>
