<svg width="45" height="48" viewBox="0 0 45 48" fill="none" xmlns="http://www.w3.org/2000/svg">
<path d="M22.522 3.27273C22.6866 3.27273 22.8512 3.27273 23.0159 3.27273C24.0695 3.33818 25.1122 3.64364 26.4732 4.26545C27.922 4.94182 29.7 5.95636 32.0488 7.32L32.1915 7.40727C34.5402 8.76 36.3073 9.77455 37.6024 10.6909C38.8646 11.5855 39.6549 12.3382 40.2366 13.2218C40.4012 13.4836 40.5659 13.7564 40.7085 14.04C41.1805 14.9891 41.4439 16.0473 41.5866 17.5636C41.7293 19.1891 41.7293 21.2727 41.7293 23.9127V24.0655C41.7293 26.7055 41.7293 28.7891 41.5866 30.4036C41.4439 31.9418 41.1805 33 40.7085 33.9491C40.5549 34.2436 40.3902 34.5164 40.2476 34.7564C39.5561 35.8255 38.5573 36.7091 36.6915 37.9091C35.4512 38.7055 33.8598 39.6218 32.1805 40.5927L32.1037 40.6364H32.0707L32.0378 40.6691C29.689 42.0327 27.911 43.0473 26.4732 43.7127C25.1012 44.3564 24.0585 44.6509 22.9939 44.7164C22.8293 44.7164 22.6646 44.7164 22.5 44.7164C22.3354 44.7164 22.1707 44.7164 22.0061 44.7164C20.9524 44.6509 19.9098 44.3455 18.5488 43.7236C17.1 43.0473 15.322 42.0327 12.9732 40.6691H12.9402L12.9073 40.6364L12.8305 40.5927C11.0415 39.5673 9.57073 38.7164 8.35244 37.9309C6.51951 36.7636 5.47683 35.8473 4.77439 34.7782C4.60976 34.5164 4.44512 34.2327 4.30244 33.96C3.83049 33.0109 3.56707 31.9527 3.42439 30.4364C3.28171 28.8109 3.28171 26.7273 3.28171 24.0873V23.9345C3.28171 21.2945 3.28171 19.2109 3.42439 17.5964C3.56707 16.0582 3.83049 15 4.30244 14.0509C4.4561 13.7673 4.60976 13.4945 4.77439 13.2327C5.3561 12.3491 6.14634 11.5964 7.39756 10.7127C8.70366 9.79636 10.4707 8.77091 12.8305 7.41818L12.9622 7.34182C15.311 5.97818 17.089 4.96364 18.5268 4.29818C19.8988 3.65455 20.9415 3.36 22.0061 3.29455C22.1707 3.29455 22.3354 3.29455 22.5 3.29455M22.5 0.0218182C22.2915 0.0218182 22.0829 0.0218182 21.8744 0.0218182C20.272 0.109091 18.7902 0.567273 17.1439 1.33091C15.5415 2.08364 13.6756 3.15273 11.3159 4.51636L11.1841 4.59273C8.82439 5.94545 6.95854 7.02545 5.50976 8.04C4.02805 9.08727 2.88659 10.1345 2.00854 11.4764C1.78902 11.8255 1.58049 12.1855 1.38293 12.5564C0.658537 13.9855 0.318293 15.5018 0.153659 17.3018C0 19.0691 0 21.2182 0 23.9345V24.0873C0 26.8036 0 28.9527 0.153659 30.72C0.318293 32.52 0.658537 34.0364 1.38293 35.4655C1.58049 35.8364 1.78902 36.1964 2.00854 36.5455C3.08415 38.1927 4.56585 39.4036 6.58537 40.6909C7.84756 41.5091 9.37317 42.3927 11.2171 43.4509L11.3159 43.5055C13.6756 44.8691 15.5415 45.9382 17.1439 46.6909C18.7902 47.4545 20.272 47.9127 21.8744 48C22.0829 48 22.2915 48 22.5 48C22.7085 48 22.9171 48 23.1256 48C24.728 47.9127 26.2098 47.4545 27.8561 46.6909C29.4585 45.9382 31.3244 44.8691 33.6841 43.5055L33.7829 43.4509C35.6378 42.3818 37.1854 41.4873 38.4585 40.6691C40.4561 39.3818 41.9268 38.1818 42.9915 36.5455C43.211 36.1964 43.4195 35.8364 43.6171 35.4655C44.3415 34.0364 44.6817 32.52 44.8463 30.72C45 28.9527 45 26.8036 45 24.0873V23.9345C45 21.2182 45 19.0691 44.8463 17.3018C44.6817 15.5018 44.3415 13.9855 43.6171 12.5564C43.4195 12.1855 43.211 11.8255 42.9915 11.4764C42.1134 10.1345 40.972 9.08727 39.4902 8.04C38.0415 7.02545 36.1756 5.94545 33.8159 4.59273L33.6841 4.51636C31.3244 3.15273 29.4585 2.08364 27.8561 1.33091C26.2317 0.556364 24.75 0.0981818 23.1476 0C22.939 0 22.7305 0 22.522 0L22.5 0.0218182Z" fill="#5519FA"/>
</svg>
